<svg id="visual" viewBox="0 0 960 540" width="960" height="540" xmlns="http://www.w3.org/2000/svg" xmlns:xlink="http://www.w3.org/1999/xlink" version="1.1"><rect x="0" y="0" width="960" height="540" fill="#0c4972"></rect><path d="M0 282L22.8 281C45.7 280 91.3 278 137 286.5C182.7 295 228.3 314 274 316.2C319.7 318.3 365.3 303.7 411.2 305.2C457 306.7 503 324.3 548.8 331.7C594.7 339 640.3 336 686 332.2C731.7 328.3 777.3 323.7 823 319.2C868.7 314.7 914.3 310.3 937.2 308.2L960 306L960 541L937.2 541C914.3 541 868.7 541 823 541C777.3 541 731.7 541 686 541C640.3 541 594.7 541 548.8 541C503 541 457 541 411.2 541C365.3 541 319.7 541 274 541C228.3 541 182.7 541 137 541C91.3 541 45.7 541 22.8 541L0 541Z" fill="#21898f"></path><path d="M0 372L22.8 370.5C45.7 369 91.3 366 137 362C182.7 358 228.3 353 274 354.7C319.7 356.3 365.3 364.7 411.2 371.8C457 379 503 385 548.8 388.3C594.7 391.7 640.3 392.3 686 388.7C731.7 385 777.3 377 823 375.5C868.7 374 914.3 379 937.2 381.5L960 384L960 541L937.2 541C914.3 541 868.7 541 823 541C777.3 541 731.7 541 686 541C640.3 541 594.7 541 548.8 541C503 541 457 541 411.2 541C365.3 541 319.7 541 274 541C228.3 541 182.7 541 137 541C91.3 541 45.7 541 22.8 541L0 541Z" fill="#659d95"></path><path d="M0 408L22.8 406.2C45.7 404.3 91.3 400.7 137 398.8C182.7 397 228.3 397 274 402C319.7 407 365.3 417 411.2 416.5C457 416 503 405 548.8 400.7C594.7 396.3 640.3 398.7 686 398.3C731.7 398 777.3 395 823 393.3C868.7 391.7 914.3 391.3 937.2 391.2L960 391L960 541L937.2 541C914.3 541 868.7 541 823 541C777.3 541 731.7 541 686 541C640.3 541 594.7 541 548.8 541C503 541 457 541 411.2 541C365.3 541 319.7 541 274 541C228.3 541 182.7 541 137 541C91.3 541 45.7 541 22.8 541L0 541Z" fill="#95b1a4"></path><path d="M0 471L22.8 468.7C45.7 466.3 91.3 461.7 137 460.3C182.7 459 228.3 461 274 461.8C319.7 462.7 365.3 462.3 411.2 466.3C457 470.3 503 478.7 548.8 477.5C594.7 476.3 640.3 465.7 686 461C731.7 456.3 777.3 457.7 823 465C868.7 472.3 914.3 485.7 937.2 492.3L960 499L960 541L937.2 541C914.3 541 868.7 541 823 541C777.3 541 731.7 541 686 541C640.3 541 594.7 541 548.8 541C503 541 457 541 411.2 541C365.3 541 319.7 541 274 541C228.3 541 182.7 541 137 541C91.3 541 45.7 541 22.8 541L0 541Z" fill="#bdc5bd"></path></svg>