<svg id="visual" viewBox="0 0 960 540" width="960" height="540" xmlns="http://www.w3.org/2000/svg" xmlns:xlink="http://www.w3.org/1999/xlink" version="1.1"><rect x="0" y="0" width="960" height="540" fill="#0c4972"></rect><path d="M0 327L22.8 327.3C45.7 327.7 91.3 328.3 137 321.7C182.7 315 228.3 301 274 293.8C319.7 286.7 365.3 286.3 411.2 294.3C457 302.3 503 318.7 548.8 320.8C594.7 323 640.3 311 686 302.8C731.7 294.7 777.3 290.3 823 291.8C868.7 293.3 914.3 300.7 937.2 304.3L960 308L960 541L937.2 541C914.3 541 868.7 541 823 541C777.3 541 731.7 541 686 541C640.3 541 594.7 541 548.8 541C503 541 457 541 411.2 541C365.3 541 319.7 541 274 541C228.3 541 182.7 541 137 541C91.3 541 45.7 541 22.8 541L0 541Z" fill="#21898f"></path><path d="M0 343L22.8 345.7C45.7 348.3 91.3 353.7 137 353.5C182.7 353.3 228.3 347.7 274 347C319.7 346.3 365.3 350.7 411.2 351.8C457 353 503 351 548.8 353.3C594.7 355.7 640.3 362.3 686 363.3C731.7 364.3 777.3 359.7 823 354C868.7 348.3 914.3 341.7 937.2 338.3L960 335L960 541L937.2 541C914.3 541 868.7 541 823 541C777.3 541 731.7 541 686 541C640.3 541 594.7 541 548.8 541C503 541 457 541 411.2 541C365.3 541 319.7 541 274 541C228.3 541 182.7 541 137 541C91.3 541 45.7 541 22.8 541L0 541Z" fill="#659d95"></path><path d="M0 408L22.8 408.8C45.7 409.7 91.3 411.3 137 411.3C182.7 411.3 228.3 409.7 274 415C319.7 420.3 365.3 432.7 411.2 432.7C457 432.7 503 420.3 548.8 420.2C594.7 420 640.3 432 686 436.5C731.7 441 777.3 438 823 432.8C868.7 427.7 914.3 420.3 937.2 416.7L960 413L960 541L937.2 541C914.3 541 868.7 541 823 541C777.3 541 731.7 541 686 541C640.3 541 594.7 541 548.8 541C503 541 457 541 411.2 541C365.3 541 319.7 541 274 541C228.3 541 182.7 541 137 541C91.3 541 45.7 541 22.8 541L0 541Z" fill="#95b1a4"></path><path d="M0 473L22.8 473C45.7 473 91.3 473 137 475.2C182.7 477.3 228.3 481.7 274 482.7C319.7 483.7 365.3 481.3 411.2 483C457 484.7 503 490.3 548.8 489.8C594.7 489.3 640.3 482.7 686 483.3C731.7 484 777.3 492 823 491C868.7 490 914.3 480 937.2 475L960 470L960 541L937.2 541C914.3 541 868.7 541 823 541C777.3 541 731.7 541 686 541C640.3 541 594.7 541 548.8 541C503 541 457 541 411.2 541C365.3 541 319.7 541 274 541C228.3 541 182.7 541 137 541C91.3 541 45.7 541 22.8 541L0 541Z" fill="#bdc5bd"></path></svg>